<?xml version="1.0" encoding="UTF-8" standalone="no"?>
<svg
   width="2048"
   height="1792"
   viewBox="0 0 2048 1792"
   version="1.1"
   xmlns="http://www.w3.org/2000/svg"
   xmlns:svg="http://www.w3.org/2000/svg">
  <path
     id="path936"
     d="m 683.01758,143.18555 c -105.99989,0 -196.50008,37.50007 -271.5,112.5 -74.99993,74.99992 -112.5,165.5001 -112.5,271.5 0,105.99989 37.50007,196.50007 112.5,271.5 74.99992,74.99992 165.50011,112.5 271.5,112.5 105.99989,0 196.50007,-37.50008 271.5,-112.5 75.00002,-74.99993 112.50002,-165.50011 112.50002,-271.5 0,-105.9999 -37.5,-196.50008 -112.50002,-271.5 -74.99993,-74.99993 -165.50011,-112.5 -271.5,-112.5 z m -313,704 c -50.66662,0 -95.50004,11.50002 -134.5,34.5 -38.99996,22.99997 -70.33336,52.6667 -94,89 -23.66665,36.33325 -43.166684,80.00005 -58.500002,130.99995 -15.333318,51 -25.833339,101.6668 -31.5,152 -5.666661,50.3333 -8.5,103.8334 -8.5,160.5 0,72.6666 20.833375,135.0001 62.500002,187 41.66663,52 91.83339,78 150.5,78 h 579.10547 c -52.9368,-52.8901 -105.88326,-105.7702 -158.81836,-158.6621 -34.74678,-34.7031 -69.45855,-69.4411 -104.22461,-104.125 -13.96527,-13.7502 -27.52209,-28.1401 -38.20117,-44.6523 -25.4357,-39.2909 -34.98722,-88.3075 -27.02149,-134.3574 5.68759,-33.2403 20.62869,-64.7746 42.42774,-90.4746 2.46709,-3.0281 5.30783,-5.7144 8.01562,-8.5215 34.64199,-35.2206 69.69186,-70.0354 104.5293,-105.0606 13.7847,-14.0445 28.61522,-27.3344 45.52148,-37.56052 41.7737,-25.34637 93.58691,-33.21644 141.09961,-22.04882 31.31891,7.32267 60.55321,22.98264 84.37891,44.54104 64.08283,63.9519 128.15192,127.9186 192.21872,191.8867 48.5299,-48.5261 97.06,-97.052 145.5899,-145.5781 -13.043,-35.3981 -28.4125,-66.70032 -46.1211,-93.88675 -23.6667,-36.3333 -55.0001,-66.00003 -94,-89 -39,-22.99998 -83.8334,-34.5 -134.50002,-34.5 -87.33331,85.33324 -191.6668,128 -313,128 -121.33321,0 -225.66676,-42.66676 -313,-128 z" />
  <path
     id="path976-0"
     d="m 1821.5829,675.90516 c -11.9104,0.245 -23.8111,3.01075 -34.4341,8.45086 -8.7337,4.40564 -16.5202,10.52098 -23.3161,17.52585 -214.7239,214.72391 -429.4478,429.44783 -644.1717,644.17173 -87.3449,-87.339 -174.67798,-174.6898 -262.03018,-262.0214 -8.9677,-8.9119 -19.8256,-16.0423 -31.8618,-20.0353 -12.3926,-4.1396 -25.7669,-5.0437 -38.6728,-3.2171 -11.7063,1.6798 -22.9948,6.0994 -32.749,12.7828 -5.5813,3.7622 -10.6082,8.2781 -15.2923,13.0971 -36.1489,36.1577 -72.3156,72.2978 -108.4533,108.4666 -8.8478,8.953 -15.9098,19.7837 -19.8683,31.771 -4.1007,12.3593 -4.9957,25.6859 -3.1742,38.5492 1.676,11.6715 6.0731,22.9282 12.7245,32.6625 3.7756,5.6144 8.3118,10.6701 13.1554,15.3788 142.7041,142.7002 285.4003,285.4083 428.10938,428.1035 8.9751,8.9508 19.8459,16.126 31.9101,20.1425 12.3865,4.1595 25.7604,5.0736 38.6685,3.2653 11.7076,-1.6683 23.0034,-6.0688 32.7647,-12.7427 5.6145,-3.7727 10.6682,-8.3099 15.3754,-13.1527 270.677,-270.6801 541.3603,-541.354 812.0333,-812.03802 8.9099,-8.92264 16.0759,-19.7134 20.1159,-31.70015 4.243,-12.4635 5.1837,-25.94415 3.3621,-38.94979 -1.6683,-11.70764 -6.0688,-23.00346 -12.7427,-32.76472 -3.7727,-5.61454 -8.3099,-10.66816 -13.1527,-15.37539 -36.1577,-36.14886 -72.2978,-72.31559 -108.4666,-108.45329 -8.953,-8.8478 -19.7837,-15.90977 -31.771,-19.86835 -9.0193,-3.0082 -18.5709,-4.26274 -28.0625,-4.04883 z" />
</svg>
