<?xml version="1.0" encoding="UTF-8" standalone="no"?>
<svg
   width="1792"
   height="1792"
   viewBox="0 0 1792 1792"
   version="1.1"
   id="svg5578"
   sodipodi:docname="moon.svg"
   inkscape:version="1.2.2 (b0a84865, 2022-12-01)"
   xmlns:inkscape="http://www.inkscape.org/namespaces/inkscape"
   xmlns:sodipodi="http://sodipodi.sourceforge.net/DTD/sodipodi-0.dtd"
   xmlns="http://www.w3.org/2000/svg"
   xmlns:svg="http://www.w3.org/2000/svg">
  <defs
     id="defs5582" />
  <sodipodi:namedview
     id="namedview5580"
     pagecolor="#ffffff"
     bordercolor="#000000"
     borderopacity="0.25"
     inkscape:showpageshadow="2"
     inkscape:pageopacity="0.0"
     inkscape:pagecheckerboard="0"
     inkscape:deskcolor="#d1d1d1"
     showgrid="false"
     inkscape:zoom="0.13169643"
     inkscape:cx="892.20339"
     inkscape:cy="896"
     inkscape:window-width="1344"
     inkscape:window-height="456"
     inkscape:window-x="168"
     inkscape:window-y="304"
     inkscape:window-maximized="0"
     inkscape:current-layer="svg5578" />
  <path
     d="m 1172.4248,1135.0647 q -31.6938,5.2823 -64.5614,5.2823 -106.8199,0 -197.79287,-52.823 -90.97297,-52.823 -143.79598,-143.79596 -52.82301,-90.97297 -52.82301,-197.79284 0,-112.68909 61.03992,-209.53127 -117.97139,35.21534 -192.80399,134.40521 -74.8326,99.18988 -74.8326,225.37819 0,76.2999 29.93304,145.85017 29.93304,69.5503 80.1149,119.7322 50.18187,50.1818 119.73216,80.1149 69.5503,29.933 145.85021,29.933 84.51681,0 160.52322,-36.0957 76.0065,-36.0957 129.4164,-100.6572 z m 119.1453,-49.8884 q -55.1707,119.1453 -166.3925,190.4563 -111.2218,71.3111 -242.69242,71.3111 -91.55989,0 -174.90286,-35.8023 -83.34298,-35.8022 -143.79598,-96.2552 -60.453,-60.453 -96.25526,-143.796 -35.80227,-83.34299 -35.80227,-174.90287 0,-89.79912 33.74804,-171.67479 33.74803,-81.87567 91.55988,-141.74175 57.81186,-59.86608 138.22022,-96.54872 80.40836,-36.68265 170.20748,-40.20419 25.82458,-1.17384 35.80226,22.88998 10.5646,24.06381 -8.80383,42.25841 -50.47533,45.77994 -77.18029,106.5264 -26.70497,60.74646 -26.70497,128.24253 0,86.86451 42.84533,160.22981 42.84533,73.36529 116.21063,116.21059 73.36534,42.8454 160.22984,42.8454 69.2568,0 133.8183,-29.9331 24.0638,-10.5646 42.2584,7.63 8.2169,8.2169 10.2711,19.9554 2.0542,11.7384 -2.6411,22.303 z"
     id="path5576"
     style="stroke-width:0.586922" />
</svg>
