<?xml version="1.0" encoding="UTF-8" standalone="no"?>
<svg
   width="2048"
   height="1792"
   viewBox="0 0 2048 1792"
   version="1.1"
   id="svg688"
   sodipodi:docname="unpublish.svg"
   inkscape:version="1.2.2 (b0a84865, 2022-12-01)"
   xmlns:inkscape="http://www.inkscape.org/namespaces/inkscape"
   xmlns:sodipodi="http://sodipodi.sourceforge.net/DTD/sodipodi-0.dtd"
   xmlns="http://www.w3.org/2000/svg"
   xmlns:svg="http://www.w3.org/2000/svg">
  <defs
     id="defs692" />
  <sodipodi:namedview
     id="namedview690"
     pagecolor="#ffffff"
     bordercolor="#000000"
     borderopacity="0.25"
     inkscape:showpageshadow="2"
     inkscape:pageopacity="0.0"
     inkscape:pagecheckerboard="0"
     inkscape:deskcolor="#d1d1d1"
     showgrid="false"
     inkscape:zoom="0.18624688"
     inkscape:cx="1108.7434"
     inkscape:cy="936.92847"
     inkscape:window-width="1344"
     inkscape:window-height="749"
     inkscape:window-x="148"
     inkscape:window-y="116"
     inkscape:window-maximized="0"
     inkscape:current-layer="svg688" />
  <path
     id="path686"
     d="M 1024 128 C 844.66685 128 668.99983 162.00007 497 230 C 325.00017 297.99993 176.66654 394.00012 52 518 C 45.33334 524.66666 42 532.33334 42 541 C 42 552.99999 67.166717 584.00005 117.5 634 C 167.83328 683.99995 198.66668 709 210 709 C 217.33333 709 224.66667 705.99999 232 700 C 351.33321 595.33344 475.1668 516.49995 603.5 463.5 C 731.83321 410.50005 872.00015 384 1024 384 C 1045.1285 384 1065.9733 384.63609 1086.6445 385.66016 L 1307.9102 157.35547 C 1214.3063 137.99403 1119.6919 128 1024 128 z M 1715.334 307.87891 L 1527.3262 501.86719 C 1626.2966 552.1475 1722.5489 618.03451 1816 700 C 1823.3333 705.99999 1830.6667 709 1838 709 C 1849.3333 709 1880.1667 683.99995 1930.5 634 C 1980.8333 584.00005 2006 552.99999 2006 541 C 2006 532.33334 2002.6667 524.66666 1996 518 C 1913.0129 435.45668 1819.2954 365.60753 1715.334 307.87891 z M 962.125 514.13867 C 855.15017 520.72695 749.09966 544.19002 644 585 C 518.66679 633.66662 411.99991 702.00009 324 790 C 317.33334 796.66666 314 804.00001 314 812 C 314 823.99999 339.00005 855.00005 389 905 C 438.99995 954.99995 469.66668 980 481 980 C 482.33333 980 492.66669 972.66665 512 958 C 526.93204 946.67225 547.34168 932.99672 570.625 918.08984 L 962.125 514.13867 z M 1434.4766 597.66797 L 1239.8418 798.49414 C 1257.7568 804.10196 1275.2155 810.33767 1292 817.5 C 1369.3333 850.49997 1453.3334 902.00007 1544 972 C 1552 977.33333 1559.6667 980 1567 980 C 1578.3333 980 1609.0001 954.99995 1659 905 C 1708.9999 855.00005 1734 823.99999 1734 812 C 1734 804.00001 1730.6667 796.66666 1724 790 C 1643.2682 709.26824 1546.6294 645.29541 1434.4766 597.66797 z M 1135.3809 906.27734 L 857.20508 1193.3008 C 869.16368 1187.8674 881.69925 1182.4334 895.5 1177 C 937.83329 1160.3334 980.66671 1152 1024 1152 C 1067.3333 1152 1110.1667 1160.3333 1152.5 1177 C 1194.8333 1193.6666 1228.6667 1210.3333 1254 1227 C 1279.3333 1243.6666 1292.6667 1252 1294 1252 C 1306 1252 1337.1667 1226.9999 1387.5 1177 C 1437.8333 1127.0001 1463 1096 1463 1084 C 1463 1075.3333 1459.6667 1067.6667 1453 1061 C 1401.0001 1009.6667 1335.6666 969.3333 1257 940 C 1216.1892 924.78242 1175.6534 913.60032 1135.3809 906.27734 z M 1024 1280 C 996.66669 1280 962.16662 1287.3333 920.5 1302 C 878.83338 1316.6667 858 1334.6667 858 1356 C 858 1369.3333 882.33338 1400.5 931 1449.5 C 979.66662 1498.5 1010.6667 1523 1024 1523 C 1037.3333 1523 1068.3334 1498.5 1117 1449.5 C 1165.6666 1400.5 1190 1369.3333 1190 1356 C 1190 1334.6667 1169.1666 1316.6667 1127.5 1302 C 1085.8334 1287.3333 1051.3333 1280 1024 1280 z " />
  <rect
     style="fill:#000000"
     id="rect921"
     width="1804.0571"
     height="252.35323"
     x="-730.81262"
     y="1116.3485"
     transform="rotate(-45.792182)" />
</svg>
